<svg width="1440" height="819" viewBox="0 0 1440 819" fill="none" xmlns="http://www.w3.org/2000/svg">
<g clip-path="url(#clip0_124_94)">
<path d="M833.009 -134.411C807.369 -168.529 763.638 -191 714 -191C655.164 -191 604.627 -159.429 582.677 -114.313C556.835 -137.078 521.266 -151.139 482 -151.139C424.278 -151.139 374.544 -120.752 351.955 -77.0007C336.126 -80.2309 318.949 -82 301 -82C292.825 -82 284.81 -81.633 277.009 -80.9281C251.369 -101.47 207.638 -115 158 -115C99.1641 -115 48.627 -95.9913 26.6772 -68.8274C0.834961 -82.5338 -34.7344 -91 -74 -91C-152.977 -91 -217 -56.7498 -217 -14.5C-217 27.7498 -152.977 62 -74 62C-61.7383 62 -49.8369 61.1744 -38.48 59.6215C-21.3452 91.5987 33.719 115 99 115C162.405 115 216.172 92.9246 234.909 62.3571C254.676 67.8782 277.157 71 301 71C328.01 71 353.272 66.9938 374.821 60.0315C401.022 86.3675 439.328 102.974 482 102.974C494.262 102.974 506.163 101.603 517.52 99.0235C534.655 152.133 589.719 191 655 191C718.405 191 772.172 154.336 790.909 103.567C810.676 112.737 833.157 117.922 857 117.922C912.664 117.922 960.9 89.663 984.527 48.4109C1002.64 53.6384 1022.78 56.5522 1044 56.5522C1056.26 56.5522 1068.16 55.5794 1079.52 53.7496C1096.65 91.4272 1151.72 119 1217 119C1280.4 119 1334.17 92.9894 1352.91 56.9729C1372.68 63.4783 1395.16 67.1565 1419 67.1565C1497.98 67.1565 1562 26.8008 1562 -22.9804C1562 -72.7617 1497.98 -113.117 1419 -113.117C1410.82 -113.117 1402.81 -112.685 1395.01 -111.854C1369.37 -136.058 1325.64 -152 1276 -152C1217.16 -152 1166.63 -129.603 1144.68 -97.5967C1118.83 -113.746 1083.27 -123.722 1044 -123.722C1009.5 -123.722 977.845 -116.019 953.141 -103.192C927.747 -123.695 894.016 -136.191 857 -136.191C848.825 -136.191 840.81 -135.582 833.009 -134.411Z" fill="white"/>
</g>
<g clip-path="url(#clip1_124_94)">
<path d="M606.991 953.411C632.631 987.529 676.362 1010 726 1010C784.836 1010 835.373 978.429 857.323 933.313C883.165 956.078 918.734 970.139 958 970.139C1015.72 970.139 1065.46 939.752 1088.05 896.001C1103.87 899.231 1121.05 901 1139 901C1147.18 901 1155.19 900.633 1162.99 899.928C1188.63 920.47 1232.36 934 1282 934C1340.84 934 1391.37 914.991 1413.32 887.827C1439.17 901.534 1474.73 910 1514 910C1592.98 910 1657 875.75 1657 833.5C1657 791.25 1592.98 757 1514 757C1501.74 757 1489.84 757.826 1478.48 759.379C1461.35 727.401 1406.28 704 1341 704C1277.6 704 1223.83 726.075 1205.09 756.643C1185.32 751.122 1162.84 748 1139 748C1111.99 748 1086.73 752.006 1065.18 758.968C1038.98 732.633 1000.67 716.026 958 716.026C945.738 716.026 933.837 717.397 922.48 719.977C905.345 666.867 850.281 628 785 628C721.595 628 667.828 664.664 649.091 715.433C629.324 706.263 606.843 701.078 583 701.078C527.336 701.078 479.1 729.337 455.473 770.589C437.363 765.362 417.221 762.448 396 762.448C383.738 762.448 371.837 763.421 360.48 765.25C343.345 727.573 288.281 700 223 700C159.595 700 105.828 726.011 87.0908 762.027C67.3237 755.522 44.8433 751.843 21 751.843C-57.9767 751.843 -122 792.199 -122 841.98C-122 891.762 -57.9767 932.117 21 932.117C29.1752 932.117 37.1902 931.685 44.9906 930.854C70.6313 955.058 114.362 971 164 971C222.836 971 273.373 948.603 295.323 916.597C321.165 932.746 356.734 942.722 396 942.722C430.505 942.722 462.155 935.019 486.859 922.192C512.253 942.695 545.984 955.191 583 955.191C591.175 955.191 599.19 954.582 606.991 953.411Z" fill="white"/>
</g>
<defs>
<clipPath id="clip0_124_94">
<rect width="1440" height="191" fill="white"/>
</clipPath>
<clipPath id="clip1_124_94">
<rect width="1440" height="191" fill="white" transform="translate(1440 819) rotate(180)"/>
</clipPath>
</defs>
</svg>
