<svg width="40" height="40" viewBox="0 0 40 40" fill="none" xmlns="http://www.w3.org/2000/svg">
<path d="M29.777 10.1527C29.8814 10.2419 29.9541 10.3625 29.9844 10.4966C30.0146 10.6306 30.0007 10.7708 29.9448 10.8963C27.9993 15.2639 23.9136 21.2995 20.9228 24.4447C20.0845 25.3245 19.0506 25.9938 17.9053 26.398C17.8824 26.687 17.829 27.083 17.7018 27.5032C17.4463 28.3424 16.8537 29.3865 15.5299 29.7188C14.248 30.0245 12.9194 30.0816 11.616 29.8869C11.3736 29.8486 11.1346 29.7911 10.9013 29.715C10.6855 29.6492 10.4843 29.5425 10.3087 29.4005C10.193 29.3019 10.1038 29.1758 10.0493 29.0338C9.98184 28.8515 9.98365 28.6507 10.0544 28.4697C10.1752 28.1577 10.4563 27.9858 10.6406 27.8941C11.1416 27.6433 11.4354 27.3173 11.7431 26.8424C11.8639 26.659 11.9771 26.4642 12.1081 26.2413L12.2568 25.9892C12.4489 25.6645 12.6714 25.3016 12.9511 24.9094C13.6225 23.9684 14.4783 23.7316 15.1714 23.7685C15.3316 23.7774 15.4804 23.8003 15.6139 23.8296C15.6927 23.6106 15.7944 23.3458 15.9165 23.0554C16.2484 22.2672 16.7532 21.2486 17.4259 20.4209C20.1929 17.0211 25.2844 12.5185 29.0191 10.1017C29.1341 10.0274 29.2699 9.99225 29.4065 10.0014C29.543 10.0106 29.673 10.0637 29.777 10.1527V10.1527ZM15.6368 25.1679C15.468 25.0944 15.2877 25.0513 15.104 25.0406C14.7911 25.024 14.3753 25.1043 13.9862 25.6505C13.7357 26.0007 13.5348 26.3279 13.3504 26.6399L13.2169 26.8653C13.0821 27.0958 12.9461 27.3262 12.81 27.5376C12.5525 27.9554 12.2256 28.3262 11.8436 28.634C12.721 28.7766 14.0511 28.7753 15.2222 28.4811C15.933 28.3042 16.2942 27.7566 16.4849 27.1314C16.577 26.8208 16.6308 26.5001 16.6451 26.1764L15.6368 25.1679V25.1679ZM17.4679 25.201C17.6205 25.1501 17.8201 25.0737 18.0503 24.968C18.7828 24.6277 19.4449 24.1526 20.0022 23.5673C22.4182 21.0257 25.6125 16.4748 27.6979 12.5771C24.4045 15.0309 20.6202 18.5109 18.4127 21.2257C17.8506 21.9171 17.4017 22.8084 17.0877 23.5508C16.9338 23.9175 16.8155 24.2384 16.738 24.4676V24.4689L17.4691 25.201H17.4679ZM11.1442 29.072L11.1531 29.0656C11.1504 29.0677 11.1474 29.0694 11.1442 29.0707V29.072ZM15.6991 25.1972L15.7016 25.1985H15.6991V25.1972Z" fill="black"/>
</svg>
