<svg width="40" height="40" viewBox="0 0 40 40" fill="none" xmlns="http://www.w3.org/2000/svg">
<path d="M20.1984 10.8784C20.7609 10.3159 21.5239 10 22.3194 10C23.1149 10 23.8778 10.3159 24.4404 10.8784L30.2589 16.6969C30.8213 17.2594 31.1372 18.0224 31.1372 18.8179C31.1372 19.6134 30.8213 20.3763 30.2589 20.9389L22.0089 29.1889C21.4464 29.7515 20.6834 30.0677 19.8879 30.0679H15.7494C14.9538 30.0677 14.1908 29.7515 13.6284 29.1889L9.87836 25.4389C9.31595 24.8763 9 24.1134 9 23.3179C9 22.5224 9.31595 21.7594 9.87836 21.1969L20.1969 10.8784H20.1984ZM23.3799 11.9389C23.0986 11.6577 22.7171 11.4997 22.3194 11.4997C21.9216 11.4997 21.5402 11.6577 21.2589 11.9389L14.3094 18.8884L22.2489 26.8279L29.1984 19.8784C29.4796 19.5971 29.6375 19.2156 29.6375 18.8179C29.6375 18.4201 29.4796 18.0387 29.1984 17.7574L23.3799 11.9389ZM21.1884 27.8884L13.2489 19.9489L10.9404 22.2574C10.6592 22.5387 10.5012 22.9201 10.5012 23.3179C10.5012 23.7156 10.6592 24.0971 10.9404 24.3784L14.6904 28.1284C14.9716 28.4097 15.3531 28.5678 15.7509 28.5679H19.8894C20.2872 28.5678 20.6686 28.4097 20.9499 28.1284L21.1899 27.8884H21.1884Z" fill="black"/>
</svg>
