<svg width="36" height="36" viewBox="0 0 36 36" fill="none" xmlns="http://www.w3.org/2000/svg">
<rect width="36" height="36" rx="18" fill="#2E4D58"/>
<path d="M28.5 7.17677V6.1014C26.7093 4.25617 24.311 3.16118 21.774 3.03047C21.0712 2.94502 20.3587 3.03999 19.7006 3.30683C19.0426 3.57367 18.4597 4.00399 18.0045 4.55902C17.535 4.02144 16.9495 3.60338 16.2947 3.33804C15.6398 3.0727 14.9336 2.96739 14.232 3.03047C11.6929 3.15968 9.29222 4.25478 7.5 6.1014V7.17677L6 7.63764V23L16.05 20.8493L16.5 21.4638H19.5L19.95 20.8493L30 23V7.63764L28.5 7.17677ZM14.22 17.3313C12.378 17.3819 10.5705 17.8554 8.931 18.717L9 6.74662C10.3727 5.41934 12.1673 4.64464 14.0535 4.56517C15.2045 4.63836 16.3186 5.00884 17.292 5.64207L17.2635 17.7307C16.2708 17.434 15.2386 17.2997 14.205 17.3328L14.22 17.3313ZM27 18.6832C25.3857 17.8421 23.6086 17.3803 21.798 17.3313L21.5565 17.3282C20.5665 17.3282 19.611 17.4757 18.708 17.7491L18.7785 5.60981C19.7255 4.99972 20.8061 4.6412 21.9225 4.5667C23.8181 4.64022 25.6231 5.41655 27.0015 6.75123L26.997 18.6847L27 18.6832Z" fill="white"/>
<path d="M13.684 32.072C13.06 32.072 12.46 31.972 11.884 31.772C11.316 31.572 10.876 31.308 10.564 30.98L10.912 30.296C11.216 30.6 11.62 30.848 12.124 31.04C12.628 31.224 13.148 31.316 13.684 31.316C14.436 31.316 15 31.18 15.376 30.908C15.752 30.628 15.94 30.268 15.94 29.828C15.94 29.492 15.836 29.224 15.628 29.024C15.428 28.824 15.18 28.672 14.884 28.568C14.588 28.456 14.176 28.336 13.648 28.208C13.016 28.048 12.512 27.896 12.136 27.752C11.76 27.6 11.436 27.372 11.164 27.068C10.9 26.764 10.768 26.352 10.768 25.832C10.768 25.408 10.88 25.024 11.104 24.68C11.328 24.328 11.672 24.048 12.136 23.84C12.6 23.632 13.176 23.528 13.864 23.528C14.344 23.528 14.812 23.596 15.268 23.732C15.732 23.86 16.132 24.04 16.468 24.272L16.168 24.98C15.816 24.748 15.44 24.576 15.04 24.464C14.64 24.344 14.248 24.284 13.864 24.284C13.128 24.284 12.572 24.428 12.196 24.716C11.828 24.996 11.644 25.36 11.644 25.808C11.644 26.144 11.744 26.416 11.944 26.624C12.152 26.824 12.408 26.98 12.712 27.092C13.024 27.196 13.44 27.312 13.96 27.44C14.576 27.592 15.072 27.744 15.448 27.896C15.832 28.04 16.156 28.264 16.42 28.568C16.684 28.864 16.816 29.268 16.816 29.78C16.816 30.204 16.7 30.592 16.468 30.944C16.244 31.288 15.896 31.564 15.424 31.772C14.952 31.972 14.372 32.072 13.684 32.072Z" fill="white"/>
<path d="M23.66 27.668C24.212 27.788 24.636 28.028 24.932 28.388C25.236 28.74 25.388 29.196 25.388 29.756C25.388 30.476 25.12 31.032 24.584 31.424C24.056 31.808 23.272 32 22.232 32H18.368V23.6H21.992C22.928 23.6 23.652 23.788 24.164 24.164C24.684 24.54 24.944 25.072 24.944 25.76C24.944 26.224 24.828 26.62 24.596 26.948C24.372 27.268 24.06 27.508 23.66 27.668ZM19.256 24.332V27.38H21.932C22.612 27.38 23.136 27.252 23.504 26.996C23.872 26.732 24.056 26.352 24.056 25.856C24.056 25.36 23.872 24.984 23.504 24.728C23.136 24.464 22.612 24.332 21.932 24.332H19.256ZM22.22 31.268C22.972 31.268 23.54 31.14 23.924 30.884C24.308 30.628 24.5 30.228 24.5 29.684C24.5 28.636 23.74 28.112 22.22 28.112H19.256V31.268H22.22Z" fill="white"/>
</svg>
