<svg width="25" height="24" viewBox="0 0 25 24" fill="none" xmlns="http://www.w3.org/2000/svg">
<path fill-rule="evenodd" clip-rule="evenodd" d="M13 0C6.37 0 1 5.50583 1 12.3035C1 17.7478 4.435 22.3463 9.205 23.9765C9.805 24.0842 10.03 23.715 10.03 23.3921C10.03 23.0999 10.015 22.131 10.015 21.1005C7 21.6696 6.22 20.347 5.98 19.6549C5.845 19.3012 5.26 18.2092 4.75 17.917C4.33 17.6863 3.73 17.1173 4.735 17.1019C5.68 17.0865 6.355 17.9939 6.58 18.363C7.66 20.2239 9.385 19.701 10.075 19.3781C10.18 18.5783 10.495 18.04 10.84 17.7325C8.17 17.4249 5.38 16.3637 5.38 11.6576C5.38 10.3196 5.845 9.21227 6.61 8.35102C6.49 8.04343 6.07 6.78232 6.73 5.09058C6.73 5.09058 7.735 4.76762 10.03 6.3517C10.99 6.07487 12.01 5.93645 13.03 5.93645C14.05 5.93645 15.07 6.07487 16.03 6.3517C18.325 4.75224 19.33 5.09058 19.33 5.09058C19.99 6.78232 19.57 8.04343 19.45 8.35102C20.215 9.21227 20.68 10.3042 20.68 11.6576C20.68 16.3791 17.875 17.4249 15.205 17.7325C15.64 18.1169 16.015 18.8552 16.015 20.0086C16.015 21.6542 16 22.9768 16 23.3921C16 23.715 16.225 24.0995 16.825 23.9765C19.2072 23.1519 21.2772 21.5821 22.7437 19.4881C24.2101 17.3942 24.9993 14.8814 25 12.3035C25 5.50583 19.63 0 13 0Z" fill="white"/>
</svg>
