<svg width="40" height="40" viewBox="0 0 40 40" fill="none" xmlns="http://www.w3.org/2000/svg">
<path d="M30 14H26.925C26.55 12.275 25.05 11 23.25 11C21.45 11 19.95 12.275 19.575 14H9V15.5H19.575C19.95 17.225 21.45 18.5 23.25 18.5C25.05 18.5 26.55 17.225 26.925 15.5H30V14ZM23.25 17C21.975 17 21 16.025 21 14.75C21 13.475 21.975 12.5 23.25 12.5C24.525 12.5 25.5 13.475 25.5 14.75C25.5 16.025 24.525 17 23.25 17Z" fill="black"/>
<path d="M9 26H12.075C12.45 27.725 13.95 29 15.75 29C17.55 29 19.05 27.725 19.425 26H30V24.5H19.425C19.05 22.775 17.55 21.5 15.75 21.5C13.95 21.5 12.45 22.775 12.075 24.5H9V26ZM15.75 23C17.025 23 18 23.975 18 25.25C18 26.525 17.025 27.5 15.75 27.5C14.475 27.5 13.5 26.525 13.5 25.25C13.5 23.975 14.475 23 15.75 23Z" fill="black"/>
</svg>
